<?xml version="1.0" encoding="UTF-8" standalone="no"?>
<!DOCTYPE svg PUBLIC "-//W3C//DTD SVG 1.1//EN"
 "http://www.w3.org/Graphics/SVG/1.1/DTD/svg11.dtd">
<!-- Generated by graphviz version 2.38.0 (20140413.2041)
 -->
<!-- Title: G Pages: 1 -->
<svg width="115pt" height="204pt"
 viewBox="0.00 0.00 115.00 204.00" xmlns="http://www.w3.org/2000/svg" xmlns:xlink="http://www.w3.org/1999/xlink">
<g id="graph0" class="graph" transform="scale(1 1) rotate(0) translate(4 200)">
<title>G</title>
<polygon fill="white" stroke="none" points="-4,4 -4,-200 111,-200 111,4 -4,4"/>
<g id="clust1" class="cluster"><title>cluster_Global</title>
<path fill="none" stroke="gray" d="M20,-8C20,-8 87,-8 87,-8 93,-8 99,-14 99,-20 99,-20 99,-176 99,-176 99,-182 93,-188 87,-188 87,-188 20,-188 20,-188 14,-188 8,-182 8,-176 8,-176 8,-20 8,-20 8,-14 14,-8 20,-8"/>
<text text-anchor="middle" x="53.5" y="-175.2" font-family="Times,serif" font-size="11.00" fill="gray">\</text>
</g>
<!-- \\Premise_WP -->
<g id="node1" class="node"><title>\\Premise_WP</title>
<polygon fill="none" stroke="black" points="90.5,-160 16.5,-160 16.5,-124 90.5,-124 90.5,-160"/>
<text text-anchor="middle" x="53.5" y="-139.2" font-family="Times,serif" font-size="11.00">Premise_WP</text>
</g>
<!-- \\A -->
<g id="node2" class="node"><title>\\A</title>
<polygon fill="none" stroke="black" points="80.5,-106 26.5,-106 26.5,-70 80.5,-70 80.5,-106"/>
<text text-anchor="middle" x="53.5" y="-85.2" font-family="Times,serif" font-size="11.00">A</text>
</g>
<!-- \\PremiseField -->
<g id="node3" class="node"><title>\\PremiseField</title>
<polygon fill="none" stroke="black" points="91,-52 16,-52 16,-16 91,-16 91,-52"/>
<text text-anchor="middle" x="53.5" y="-31.2" font-family="Times,serif" font-size="11.00">PremiseField</text>
</g>
</g>
</svg>
